<svg fill="none" xmlns="http://www.w3.org/2000/svg" viewBox="484 177 32 32" width="1176" height="1176" ><g><circle cx="500" cy="193" r="16" fill="white"/><path d="M491.875 193C491.875 192.655 492.155 192.375 492.5 192.375H507.5C507.845 192.375 508.125 192.655 508.125 193C508.125 193.345 507.845 193.625 507.5 193.625H492.5C492.155 193.625 491.875 193.345 491.875 193Z" fill="#7859EE"/><path d="M502.058 187.558C502.302 187.314 502.698 187.314 502.942 187.558L507.942 192.558C508.186 192.802 508.186 193.198 507.942 193.442L502.942 198.442C502.698 198.686 502.302 198.686 502.058 198.442C501.814 198.198 501.814 197.802 502.058 197.558L506.616 193L502.058 188.442C501.814 188.198 501.814 187.802 502.058 187.558Z" fill="#7859EE"/><path d="M491.875 193C491.875 192.655 492.155 192.375 492.5 192.375H507.5C507.845 192.375 508.125 192.655 508.125 193C508.125 193.345 507.845 193.625 507.5 193.625H492.5C492.155 193.625 491.875 193.345 491.875 193Z" stroke="#7859EE" stroke-linecap="round" stroke-linejoin="round"/><path d="M502.058 187.558C502.302 187.314 502.698 187.314 502.942 187.558L507.942 192.558C508.186 192.802 508.186 193.198 507.942 193.442L502.942 198.442C502.698 198.686 502.302 198.686 502.058 198.442C501.814 198.198 501.814 197.802 502.058 197.558L506.616 193L502.058 188.442C501.814 188.198 501.814 187.802 502.058 187.558Z" stroke="#7859EE" stroke-linecap="round" stroke-linejoin="round"/></g></svg>