<svg width="40" height="40" viewBox="0 0 40 40" fill="none" xmlns="http://www.w3.org/2000/svg">
<path d="M0 20C0 8.95431 8.95431 0 20 0C31.0457 0 40 8.95431 40 20C40 31.0457 31.0457 40 20 40C8.95431 40 0 31.0457 0 20Z" fill="#E6F5F7"/>
<path d="M16.3797 18.6416C16.4435 18.9103 16.2776 19.1799 16.0089 19.2438C14.7614 19.5404 13.834 20.6627 13.834 22.0003C13.834 23.5651 15.1025 24.8337 16.6673 24.8337C16.9366 24.8337 17.1962 24.7963 17.4418 24.7266C17.7075 24.6513 17.9839 24.8057 18.0592 25.0713C18.1345 25.337 17.9802 25.6134 17.7145 25.6887C17.3811 25.7833 17.0297 25.8337 16.6673 25.8337C14.5502 25.8337 12.834 24.1174 12.834 22.0003C12.834 20.189 14.0897 18.6723 15.7775 18.2709C16.0462 18.207 16.3158 18.373 16.3797 18.6416Z" fill="#008AA0"/>
<path d="M23.5325 18.6416C23.5963 18.373 23.8659 18.207 24.1346 18.2709C25.8224 18.6723 27.0781 20.189 27.0781 22.0003C27.0781 24.1174 25.3619 25.8337 23.2448 25.8337C22.8824 25.8337 22.531 25.7833 22.1976 25.6887C21.9319 25.6134 21.7776 25.337 21.8529 25.0713C21.9282 24.8057 22.2046 24.6513 22.4703 24.7266C22.7159 24.7963 22.9755 24.8337 23.2448 24.8337C24.8096 24.8337 26.0781 23.5651 26.0781 22.0003C26.0781 20.6627 25.1507 19.5404 23.9032 19.2438C23.6346 19.1799 23.4686 18.9103 23.5325 18.6416Z" fill="#008AA0"/>
<path d="M15.5007 18.667C15.5007 16.1817 17.5154 14.167 20.0007 14.167C22.4859 14.167 24.5007 16.1817 24.5007 18.667C24.5007 18.9431 24.2768 19.167 24.0007 19.167C23.7245 19.167 23.5007 18.9431 23.5007 18.667C23.5007 16.734 21.9336 15.167 20.0007 15.167C18.0677 15.167 16.5007 16.734 16.5007 18.667C16.5007 18.9431 16.2768 19.167 16.0007 19.167C15.7245 19.167 15.5007 18.9431 15.5007 18.667Z" fill="#008AA0"/>
<path d="M19.6465 18.6219C19.8411 18.4266 20.1571 18.4257 20.3528 18.6199L22.7301 20.9787C22.9261 21.1732 22.9273 21.4898 22.7329 21.6858C22.5384 21.8819 22.2218 21.8831 22.0257 21.6886L20.0026 19.6812L18.0433 21.647C17.8483 21.8425 17.5317 21.8431 17.3361 21.6481C17.1406 21.4532 17.14 21.1366 17.335 20.941L19.6465 18.6219Z" fill="#008AA0"/>
<path d="M20.0007 19.6543C20.2768 19.6543 20.5007 19.8781 20.5007 20.1543V24.667C20.5007 24.9431 20.2768 25.167 20.0007 25.167C19.7245 25.167 19.5007 24.9431 19.5007 24.667V20.1543C19.5007 19.8781 19.7245 19.6543 20.0007 19.6543Z" fill="#008AA0"/>
</svg>
