<svg width="25" height="25" viewBox="0 0 25 25" fill="none" xmlns="http://www.w3.org/2000/svg">
<path fill-rule="evenodd" clip-rule="evenodd" d="M6.83325 3.5H18.8333C20.4873 3.5 21.8333 4.846 21.8333 6.5V18.5C21.8333 20.154 20.4873 21.5 18.8333 21.5H6.83325C5.17925 21.5 3.83325 20.154 3.83325 18.5V6.5C3.83325 4.846 5.17925 3.5 6.83325 3.5ZM6.83325 5.5H18.8333C19.3853 5.5 19.8333 5.948 19.8333 6.5V14.864L16.6303 12.132C15.6403 11.29 14.0913 11.29 13.1103 12.126L5.83325 18.198V6.5C5.83325 5.948 6.28125 5.5 6.83325 5.5ZM8.83325 10.5C9.66125 10.5 10.3333 9.828 10.3333 9C10.3333 8.172 9.66125 7.5 8.83325 7.5C8.00525 7.5 7.33325 8.172 7.33325 9C7.33325 9.828 8.00525 10.5 8.83325 10.5Z" fill="#1B1B28"/>
<mask id="mask0_1591_51774" style="mask-type:alpha" maskUnits="userSpaceOnUse" x="3" y="3" width="19" height="19">
<path fill-rule="evenodd" clip-rule="evenodd" d="M6.83325 3.5H18.8333C20.4873 3.5 21.8333 4.846 21.8333 6.5V18.5C21.8333 20.154 20.4873 21.5 18.8333 21.5H6.83325C5.17925 21.5 3.83325 20.154 3.83325 18.5V6.5C3.83325 4.846 5.17925 3.5 6.83325 3.5ZM6.83325 5.5H18.8333C19.3853 5.5 19.8333 5.948 19.8333 6.5V14.864L16.6303 12.132C15.6403 11.29 14.0913 11.29 13.1103 12.126L5.83325 18.198V6.5C5.83325 5.948 6.28125 5.5 6.83325 5.5ZM8.83325 10.5C9.66125 10.5 10.3333 9.828 10.3333 9C10.3333 8.172 9.66125 7.5 8.83325 7.5C8.00525 7.5 7.33325 8.172 7.33325 9C7.33325 9.828 8.00525 10.5 8.83325 10.5Z" fill="white"/>
</mask>
<g mask="url(#mask0_1591_51774)">
</g>
</svg>
