<svg width="196" height="49" viewBox="0 0 196 49" fill="none" xmlns="http://www.w3.org/2000/svg">
<path d="M25.2362 29.3835C24.1532 28.9037 22.7385 28.6638 20.9888 28.6638C20.0045 28.6638 18.9991 28.7732 17.9796 28.9955C16.9565 29.2177 15.9722 29.5388 15.0268 29.9551C14.9457 29.9904 14.8681 30.0327 14.7869 30.068C14.4482 29.7999 14.0672 29.5705 13.6404 29.38C12.5574 28.9002 11.1427 28.6603 9.39295 28.6603C8.65565 28.6603 7.89013 28.7097 7.10343 28.8085C6.31674 28.9073 5.54062 29.0413 4.77862 29.2142C4.01662 29.3871 3.29343 29.5882 2.61962 29.8245C1.94229 30.0574 1.33199 30.3114 0.792236 30.5831V47.147C0.792236 47.401 1.00037 47.6091 1.25437 47.6091H4.21065C4.46465 47.6091 4.67279 47.401 4.67279 47.147V32.6893C5.28662 32.467 5.92868 32.2941 6.5919 32.1707C7.25512 32.0472 7.92188 31.9872 8.5851 31.9872C9.51996 31.9872 10.2784 32.0966 10.857 32.3188C11.4355 32.5411 11.88 32.841 12.1869 33.222C12.4939 33.603 12.7055 34.0229 12.8149 34.478C12.9243 34.9331 12.9807 35.3952 12.9807 35.8645V47.147C12.9807 47.401 13.1888 47.6091 13.4428 47.6091H16.3991C16.6531 47.6091 16.8612 47.401 16.8612 47.147V35.3459C16.8612 34.478 16.7695 33.6983 16.5931 32.9997C17.1082 32.6857 17.6409 32.4423 18.1912 32.28C18.8544 32.0825 19.5212 31.9837 20.1844 31.9837C21.1193 31.9837 21.8778 32.093 22.4563 32.3153C23.0349 32.5376 23.4794 32.8375 23.7863 33.2185C24.0932 33.5995 24.3049 34.0193 24.4142 34.4744C24.5236 34.9295 24.58 35.3917 24.58 35.8609V47.1434C24.58 47.3975 24.7882 47.6056 25.0422 47.6056H27.9984C28.2524 47.6056 28.4606 47.3975 28.4606 47.1434V35.3423C28.4606 33.8394 28.196 32.5905 27.6668 31.5956C27.1271 30.6042 26.3192 29.8669 25.2362 29.3835Z" fill="white"/>
<path d="M49.0735 33.67C48.5196 32.0824 47.6271 30.8441 46.3959 29.9586C45.1647 29.0731 43.5525 28.6285 41.5593 28.6285C38.85 28.6285 36.7404 29.4611 35.227 31.1228C33.7136 32.7845 32.9551 35.2294 32.9551 38.454C32.9551 40.5461 33.3184 42.3207 34.0452 43.7707C34.7719 45.2242 35.8055 46.3179 37.1461 47.0588C38.4866 47.7961 40.0706 48.1665 41.8909 48.1665C43.2456 48.1665 44.4627 48.0501 45.5457 47.8173C46.5617 47.5985 47.4825 47.3198 48.3044 46.9811C48.4032 46.9423 48.4632 46.8435 48.4632 46.7412V43.746C48.4632 43.5555 48.2692 43.432 48.0963 43.5096C47.7365 43.6754 47.3272 43.8448 46.8757 44.0176C46.2583 44.2505 45.588 44.441 44.8613 44.5892C44.1346 44.7373 43.3514 44.8114 42.5154 44.8114C40.6456 44.8114 39.2275 44.2752 38.2679 43.2062C37.4248 42.2677 36.9521 40.9448 36.8498 39.2372H49.3381C49.6344 39.2372 49.8672 38.9938 49.8637 38.6974C49.8425 36.7958 49.5815 35.12 49.0735 33.67ZM38.9382 32.4141C39.6261 32.0084 40.4657 31.8037 41.45 31.8037C42.9775 31.8037 44.0958 32.2412 44.8119 33.1161C45.4046 33.8429 45.775 34.9189 45.9267 36.3478H36.9521C37.0402 35.6245 37.1778 35.0001 37.3683 34.4815C37.7246 33.5077 38.2467 32.8198 38.9382 32.4141Z" fill="white"/>
<path d="M66.6699 29.6693C66.4159 29.5529 66.1477 29.4435 65.8585 29.3483C65.1423 29.1154 64.4438 28.9355 63.7524 28.812C63.0645 28.6885 62.4824 28.6286 62.0167 28.6286C59.1098 28.6286 56.9438 29.4788 55.5186 31.1758C54.0898 32.8763 53.3772 35.1906 53.3772 38.1188C53.3772 40.1862 53.6347 41.8726 54.1533 43.178C54.6719 44.4833 55.3704 45.4994 56.2594 46.2262C57.1449 46.9529 58.1291 47.4574 59.2121 47.7397C60.2952 48.0219 61.4029 48.163 62.5353 48.163C63.4455 48.163 64.3697 48.0748 65.3046 47.9055C66.2395 47.7326 67.1002 47.468 67.8905 47.1117C68.6772 46.7554 69.3122 46.2932 69.7919 45.7252C70.2717 45.1607 70.5116 44.4939 70.5116 43.7319V22.0841C70.5116 21.6608 70.1659 21.315 69.7426 21.315H67.4389C67.0156 21.315 66.6699 21.6608 66.6699 22.0841V29.6693ZM66.6699 43.3262C66.6699 43.7707 66.2747 44.127 65.4881 44.3987C64.7014 44.6703 63.7524 44.8044 62.6447 44.8044C61.2406 44.8044 60.1505 44.508 59.3779 43.9189C58.6018 43.3262 58.0656 42.5324 57.7728 41.5375C57.4765 40.539 57.3283 39.4277 57.3283 38.1965C57.3283 36.8417 57.5118 35.7022 57.8822 34.7814C58.2526 33.857 58.8241 33.155 59.6002 32.6752C60.3763 32.1953 61.3676 31.9554 62.5741 31.9554C63.2373 31.9554 63.9288 32.0436 64.6414 32.213C65.354 32.3859 66.0313 32.6575 66.6734 33.0244V43.3262H66.6699Z" fill="white"/>
<path d="M76.6146 26.1166H79.4756C79.8284 26.1166 80.1141 25.8309 80.1141 25.4781V23.2448C80.1141 22.892 79.8284 22.6063 79.4756 22.6063H76.6146C76.2618 22.6063 75.9761 22.892 75.9761 23.2448V25.4781C75.9761 25.8309 76.2618 26.1166 76.6146 26.1166Z" fill="white"/>
<path d="M76.0854 30.135V46.6566C76.0854 47.1823 76.5123 47.6091 77.038 47.6091H79.0452C79.5709 47.6091 80.0013 47.1822 79.9978 46.6531L79.966 30.1315C79.966 29.6058 79.5391 29.1789 79.0135 29.1789H77.0415C76.5123 29.1825 76.0854 29.6093 76.0854 30.135Z" fill="white"/>
<path d="M94.0172 43.3614L88.2281 29.3271C88.1646 29.1719 88.0129 29.0695 87.8436 29.0695H84.6086C84.3123 29.0695 84.1112 29.373 84.2276 29.6446L91.6466 47.2987C91.7242 47.4856 91.9076 47.6056 92.1122 47.6056H95.3189C95.52 47.6056 95.7035 47.4856 95.7846 47.2987L103.239 29.6446C103.355 29.3694 103.154 29.0695 102.858 29.0695H99.7428C99.5699 29.0695 99.4182 29.1754 99.3547 29.3377L94.0172 43.3614Z" fill="white"/>
<path d="M121.23 33.67C120.677 32.0824 119.784 30.8441 118.553 29.9586C117.322 29.0731 115.71 28.6285 113.716 28.6285C111.007 28.6285 108.897 29.4611 107.384 31.1228C105.871 32.7845 105.112 35.2294 105.112 38.454C105.112 40.5461 105.475 42.3207 106.202 43.7707C106.929 45.2242 107.963 46.3179 109.303 47.0588C110.644 47.7961 112.228 48.1665 114.048 48.1665C115.403 48.1665 116.62 48.0501 117.703 47.8173C118.712 47.5985 119.625 47.3234 120.44 46.9882C120.55 46.9423 120.62 46.8365 120.62 46.7165V43.7883C120.62 43.5766 120.401 43.4355 120.207 43.5237C119.858 43.6825 119.467 43.8448 119.029 44.0106C118.412 44.2434 117.741 44.4339 117.015 44.5821C116.288 44.7303 115.505 44.8044 114.669 44.8044C112.799 44.8044 111.381 44.2681 110.421 43.1991C109.578 42.2607 109.106 40.9377 109.003 39.2301H121.365C121.731 39.2301 122.024 38.9267 122.017 38.5634C121.989 36.7182 121.724 35.0883 121.23 33.67ZM111.095 32.4141C111.783 32.0084 112.623 31.8037 113.607 31.8037C115.134 31.8037 116.253 32.2412 116.969 33.1161C117.562 33.8429 117.932 34.9189 118.084 36.3478H109.109C109.197 35.6245 109.335 35.0001 109.525 34.4815C109.882 33.5077 110.404 32.8198 111.095 32.4141Z" fill="white"/>
<path d="M134.911 28.6638C133.705 28.6638 132.512 28.7944 131.331 29.0519C130.149 29.3095 129.126 29.6129 128.265 29.9551C127.563 30.2373 127.041 30.4667 126.699 30.6501C126.572 30.7171 126.49 30.8477 126.49 30.9923V46.9882C126.49 47.3304 126.769 47.6091 127.111 47.6091H129.75C130.092 47.6091 130.371 47.3304 130.371 46.9882V32.8022C130.371 32.6081 130.512 32.4459 130.706 32.4176C131.108 32.3612 131.539 32.3012 131.997 32.2448C132.586 32.1707 133.19 32.1142 133.804 32.0789C134.417 32.0437 135.038 32.0437 135.652 32.0789C136.132 32.1072 136.594 32.146 137.042 32.1989C137.247 32.2236 137.423 32.0648 137.423 31.8602V29.3694C137.423 29.2283 137.335 29.1013 137.204 29.0484C136.979 28.9602 136.721 28.8826 136.428 28.8085C136.033 28.7132 135.529 28.6638 134.911 28.6638Z" fill="white"/>
<path d="M151.901 38.267C151.333 37.8719 150.719 37.572 150.056 37.3603C149.393 37.1522 148.751 36.9475 148.137 36.75C147.474 36.5524 146.849 36.3548 146.271 36.1608C145.692 35.9632 145.223 35.6951 144.866 35.3494C144.51 35.0036 144.33 34.5379 144.33 33.9452C144.33 33.2573 144.651 32.7316 145.29 32.3753C145.928 32.0189 146.729 31.839 147.689 31.839C148.722 31.839 149.633 32.0119 150.423 32.3576C151.132 32.6681 151.88 33.0279 152.666 33.4372C152.786 33.5007 152.931 33.4125 152.931 33.2749L152.899 30.3608C152.899 30.2938 152.86 30.2338 152.8 30.202C152.042 29.8069 151.269 29.4647 150.479 29.1824C149.654 28.8861 148.588 28.7273 147.287 28.7026C146.5 28.7026 145.692 28.8085 144.866 29.0166C144.041 29.2248 143.29 29.5599 142.612 30.015C141.935 30.4702 141.388 31.0629 140.968 31.7861C140.548 32.5129 140.34 33.3913 140.34 34.425C140.34 35.36 140.506 36.1502 140.838 36.7888C141.169 37.4309 141.614 37.953 142.168 38.3587C142.722 38.7645 143.332 39.0855 143.995 39.3184C144.658 39.5512 145.325 39.7558 145.988 39.9287C146.627 40.151 147.244 40.3732 147.833 40.592C148.423 40.8142 148.909 41.0859 149.29 41.4034C149.671 41.7244 149.862 42.1654 149.862 42.7334C149.862 43.3967 149.558 43.9506 148.959 44.3951C148.355 44.8397 147.523 45.0584 146.465 45.0584C145.629 45.0584 144.87 44.9737 144.193 44.8008C143.515 44.628 142.87 44.3881 142.256 44.0811C141.727 43.8165 141.191 43.5237 140.647 43.1956C140.527 43.1251 140.372 43.2097 140.372 43.3473V46.5684C140.372 46.6389 140.414 46.7024 140.478 46.7342C141.332 47.1328 142.199 47.4645 143.088 47.7361C144.013 48.0184 145.138 48.1595 146.468 48.1595C147.675 48.1595 148.842 47.9619 149.975 47.5703C151.107 47.1752 152.024 46.5472 152.726 45.6864C153.428 44.8255 153.792 43.7036 153.816 42.3242C153.816 41.2905 153.637 40.4544 153.28 39.8123C152.927 39.1772 152.465 38.6621 151.901 38.267Z" fill="white"/>
<path d="M169.311 44.5821C168.584 44.7303 167.801 44.8044 166.965 44.8044C165.095 44.8044 163.677 44.2681 162.717 43.1991C161.874 42.2607 161.401 40.9377 161.299 39.2302H174.221C174.274 39.2302 174.313 39.1878 174.316 39.1384C174.331 37.0604 174.066 35.24 173.523 33.6736C172.969 32.086 172.076 30.8477 170.845 29.9621C169.614 29.0766 168.002 28.6321 166.009 28.6321C163.299 28.6321 161.19 29.4647 159.676 31.1264C158.163 32.788 157.404 35.2329 157.404 38.4575C157.404 40.5496 157.768 42.3242 158.494 43.7742C159.221 45.2277 160.255 46.3214 161.595 47.0623C162.936 47.7996 164.52 48.1701 166.34 48.1701C167.695 48.1701 168.912 48.0537 169.995 47.8208C171.053 47.5915 172.009 47.2987 172.856 46.9388C172.891 46.9247 172.912 46.8894 172.912 46.8541V43.4814C172.912 43.4144 172.842 43.3685 172.782 43.3967C172.366 43.5978 171.882 43.806 171.325 44.0141C170.708 44.2434 170.037 44.4339 169.311 44.5821ZM163.384 32.4141C164.072 32.0084 164.911 31.8037 165.896 31.8037C167.423 31.8037 168.541 32.2412 169.258 33.1162C169.85 33.8429 170.221 34.919 170.372 36.3478H161.398C161.486 35.6246 161.624 35.0001 161.814 34.4815C162.17 33.5078 162.696 32.8198 163.384 32.4141Z" fill="white"/>
<path d="M168.676 22.1053C172.122 22.5675 175.124 22.0771 178.458 21.0469C178.419 23.2413 178.716 25.404 179.382 27.8206C180.084 30.3643 181.562 32.2659 183.439 33.0385C184.723 33.5677 186.046 33.5078 187.165 32.8657C188.304 32.2165 189.119 31.0346 189.525 29.4541C189.62 29.0907 189.683 28.7168 189.726 28.3428C190.026 25.6615 189.119 22.9414 187.965 20.56C187.708 20.0273 187.429 19.5016 187.136 18.9866C186.907 18.5844 186.441 17.8047 186.184 17.399C189.271 15.7302 193.031 12.989 194.735 9.81732C195.568 8.27206 196.563 5.0757 194.647 2.65198C192.499 -0.0645752 188.981 0.905621 187.249 1.94285C183.916 3.93969 181.711 7.09724 180.328 11.2356C174.994 6.90673 169.258 5.52376 164.777 8.08508C164.64 8.16269 164.502 8.24384 164.368 8.32851C161.673 10.0114 160.964 13.303 161.624 16.1995C162.357 19.3993 165.134 21.6326 168.676 22.1053ZM187.404 4.75466C188.71 3.99261 190.333 3.93616 191.468 4.99456C192.35 5.81658 193.144 8.00393 190.932 11.1932C189.553 13.183 187.595 14.6542 185.231 16.0724C185.133 15.9913 185.15 15.9948 184.822 15.6209C184.508 15.2645 184.191 14.9117 183.866 14.566C183.231 13.8886 182.578 13.2289 181.898 12.5974C183.231 8.62486 184.967 6.17996 187.404 4.75466ZM187.327 27.2844C187.126 28.1593 186.674 28.8261 186.004 29.2248C185.397 29.5705 184.54 29.4788 183.704 28.9743C182.91 28.4945 180.352 26.4659 180.508 20.3307C181.869 19.7945 183.217 19.1488 184.515 18.4115C187.627 23.2343 187.616 26.0355 187.327 27.2844ZM166.453 18.1187C165.73 17.2261 165.441 16.0513 165.656 14.8976C165.896 13.6311 166.728 12.5303 168.005 11.8C168.757 11.3696 169.66 11.0662 170.686 10.8934C173.565 10.41 176.627 11.0733 179.707 13.3065C179.118 15.4974 178.723 17.5507 178.56 19.2688C172.496 21.315 168.115 20.172 166.453 18.1187ZM182.706 17.4801C182.014 17.84 181.316 18.1716 180.631 18.4679C180.681 17.9952 180.744 17.5119 180.822 17.0215C180.942 16.2665 181.132 15.3033 181.305 14.5801C182.314 15.4692 183.037 16.5205 183.489 17.0497C183.231 17.2014 182.967 17.3425 182.706 17.4801Z" fill="url(#paint0_linear_746_8101)"/>
<defs>
<linearGradient id="paint0_linear_746_8101" x1="178.273" y1="1.32604" x2="179.387" y2="33.5988" gradientUnits="userSpaceOnUse">
<stop stop-color="#FAAD2E"/>
<stop offset="0.1886" stop-color="#E29A5D"/>
<stop offset="0.4817" stop-color="#C38082"/>
<stop offset="0.7243" stop-color="#AD6F96"/>
<stop offset="0.9035" stop-color="#9F64A1"/>
<stop offset="1" stop-color="#9A5FA6"/>
</linearGradient>
</defs>
</svg>
