<svg width="14" height="16" viewBox="0 0 14 16" fill="none" xmlns="http://www.w3.org/2000/svg">
<path d="M3 1V2H2V5C2 5.53043 2.21071 6.03914 2.58578 6.41421C2.96085 6.78929 3.46956 7 4 7C4.53043 7 5.03914 6.78929 5.41421 6.41421C5.78928 6.03914 6 5.53043 6 5V2H5V1H7V5C6.99878 5.7083 6.7472 6.39337 6.28971 6.93411C5.83223 7.47486 5.19831 7.83646 4.5 7.955V11C4.5 11.7956 4.81607 12.5587 5.37867 13.1213C5.94128 13.6839 6.70435 14 7.5 14C8.29564 14 9.05871 13.6839 9.62132 13.1213C10.1839 12.5587 10.5 11.7956 10.5 11V7.929C10.0287 7.8073 9.6179 7.51789 9.34469 7.115C9.07149 6.71211 8.9546 6.22341 9.01594 5.7405C9.07727 5.25759 9.31263 4.81363 9.67788 4.49184C10.0431 4.17004 10.5132 3.99251 11 3.99251C11.4868 3.99251 11.9569 4.17004 12.3221 4.49184C12.6874 4.81363 12.9227 5.25759 12.9841 5.7405C13.0454 6.22341 12.9285 6.71211 12.6553 7.115C12.3821 7.51789 11.9713 7.8073 11.5 7.929V11C11.5 12.0609 11.0786 13.0783 10.3284 13.8284C9.57828 14.5786 8.56086 15 7.5 15C6.43913 15 5.42171 14.5786 4.67157 13.8284C3.92142 13.0783 3.5 12.0609 3.5 11V7.955C2.80168 7.83646 2.16776 7.47486 1.71028 6.93411C1.25279 6.39337 1.00121 5.7083 0.999995 5V1H3ZM12 6C12 5.80222 11.9413 5.60888 11.8315 5.44443C11.7216 5.27998 11.5654 5.15181 11.3827 5.07612C11.2 5.00043 10.9989 4.98063 10.8049 5.01921C10.6109 5.0578 10.4327 5.15304 10.2929 5.29289C10.153 5.43275 10.0578 5.61093 10.0192 5.80491C9.98062 5.99889 10.0004 6.19996 10.0761 6.38268C10.1518 6.56541 10.28 6.72159 10.4444 6.83147C10.6089 6.94135 10.8022 7 11 7C11.2651 6.99974 11.5193 6.89429 11.7068 6.70681C11.8943 6.51934 11.9997 6.26514 12 6Z" fill="#667080" stroke="#667080" stroke-width="0.5"/>
</svg>
